<svg role="img" viewBox="0 0 24 24" xmlns="http://www.w3.org/2000/svg">
  <title>GitHub</title>
  <path d="M12 .5C5.7.5.7 5.7.7 12c0 5.1 3.3 9.4 7.9 10.9.6.1.8-.3.8-.6v-2.1c-3.2.7-3.9-1.5-3.9-1.5-.5-1.2-1.2-1.5-1.2-1.5-1-.7.1-.7.1-.7 1.1.1 1.7 1.1 1.7 1.1 1 .1.8 2.1 2.8 2.1.6 0 1.1-.1 1.4-.3.1-.8.4-1.3.7-1.6-2.6-.3-5.3-1.3-5.3-5.8 0-1.3.5-2.3 1.1-3.1-.1-.3-.5-1.5.1-3.1 0 0 .9-.3 3.2 1.2.9-.2 1.9-.3 2.9-.3s2 .1 2.9.3c2.3-1.5 3.2-1.2 3.2-1.2.6 1.6.2 2.8.1 3.1.7.8 1.1 1.8 1.1 3.1 0 4.5-2.7 5.5-5.3 5.8.4.4.8 1.1.8 2.2v3.3c0 .3.2.7.8.6 4.6-1.5 7.9-5.8 7.9-10.9C23.3 5.7 18.3.5 12 .5z"></path>
</svg>